<svg version="1" xmlns="http://www.w3.org/2000/svg" width="933.333" height="933.333" viewBox="0 0 700.000000 700.000000"><path d="M339.3 4.7c-20.8 14.1-43.4 36.4-59.4 58.3-28.8 39.5-45.1 83.4-49.5 133.5-1.2 13.1-.5 54.5 1.1 72.5.2 1.9.6 8.4.9 14.5.4 6 .9 12.6 1.1 14.5.2 1.9.7 8 1 13.5.3 5.5.8 11.6 1 13.5.6 5.8 1.4 14.1 2 22 .3 4.1.7 9.5 1 12 .2 2.5.7 7.4 1 11 .4 3.6.8 7.6 1 9 .2 1.4 1.1 10.7 2.1 20.7 1.6 17.9 1.6 18.2-.3 21.5-2.2 3.6-4.2 6.7-33.8 52.9-11 17.1-23.2 36.4-27.1 42.8-6.5 10.6-12.6 23.8-14 30.1-3 13.9-3.2 20.2-3.3 81-.2 71-.5 68.2 7.5 70.9 6.9 2.4 8.5 1.1 26.4-20.8 8.9-10.8 17.6-21.4 19.5-23.6 4.2-5.1 31.7-38.8 35.8-43.9 1.8-2.2 5.4-6.6 8-9.8l4.9-5.8 2.6 5.2c3 6.1 11.7 15 17.5 18 8.6 4.3 13.4 5.1 32.7 5.4 10.2.1 18.8.3 19.3.3.4.1.7 15.1.7 33.3 0 29.7.2 33.7 1.8 36.8 3.6 7.3 14 7.6 18.3.6 1.8-2.9 1.9-5.6 1.9-37.1v-34l18.8-.2c18.6-.1 24-.8 31.2-4.1 8.3-3.8 16.5-11.7 20.3-19.5l2.4-4.9 8.9 10.9c4.9 5.9 9.4 11.5 10.1 12.3.7.8 6 7.3 11.8 14.5 5.9 7.1 12.3 15 14.3 17.5 2.1 2.4 6 7.2 8.7 10.5 2.8 3.3 10.7 12.9 17.5 21.4 14 17.3 16.5 19.2 23 17.2 2.8-.8 4.7-2.3 6.1-4.4 1.9-3.1 2-4.7 1.6-70.2-.3-65.9-.4-67.1-2.6-75.5-2.8-10.5-10.9-27.2-19.5-40.5-3.6-5.5-9.9-15.4-14.1-22-4.2-6.6-10.3-16.1-13.6-21-3.2-5-6.8-10.6-7.9-12.5-1.1-1.9-6.1-9.8-11.1-17.5-10.4-15.9-11.6-18.2-11.3-21 .5-4.7 2.4-22.4 3-27.5.3-3 .7-7.1.9-9 .3-1.9.7-6.7 1-10.5.3-3.9.8-8.8 1-11 .2-2.2.6-7.2 1-11 .3-3.9.8-9.3 1-12 .9-8.6 2.2-25.4 3-38 .4-5 .8-10.8 1-13 .2-2.2.6-9.6 1-16.5s.8-15.2 1-18.5c1-15.3.5-49.8-.9-60-5.1-36.9-12-59.5-27.8-90.9-16-31.9-44.7-65.7-74.8-88-14-10.4-16.7-10.8-26.7-3.9z"/></svg>